<?xml version="1.0" encoding="UTF-8" standalone="no"?>
<!-- Generator: Adobe Illustrator 16.0.0, SVG Export Plug-In . SVG Version: 6.00 Build 0)  -->

<svg
   version="1.1"
   id="Capa_1"
   x="0px"
   y="0px"
   width="190.32201"
   height="41.32201"
   viewBox="0 0 190.322 41.322004"
   xml:space="preserve"
   sodipodi:docname="producktive.svg"
   inkscape:version="1.1 (c68e22c387, 2021-05-23)"
   xmlns:inkscape="http://www.inkscape.org/namespaces/inkscape"
   xmlns:sodipodi="http://sodipodi.sourceforge.net/DTD/sodipodi-0.dtd"
   xmlns="http://www.w3.org/2000/svg"
   xmlns:svg="http://www.w3.org/2000/svg"><defs
   id="defs85"><rect
     x="18.114405"
     y="37.486755"
     width="31.44862"
     height="106.42213"
     id="rect4745" /></defs><sodipodi:namedview
   id="namedview83"
   pagecolor="#ffffff"
   bordercolor="#666666"
   borderopacity="1.0"
   inkscape:pageshadow="2"
   inkscape:pageopacity="0.0"
   inkscape:pagecheckerboard="0"
   showgrid="false"
   showguides="true"
   inkscape:guide-bbox="true"
   inkscape:zoom="5.12"
   inkscape:cx="69.335938"
   inkscape:cy="60.058594"
   inkscape:window-width="1920"
   inkscape:window-height="1017"
   inkscape:window-x="-8"
   inkscape:window-y="-8"
   inkscape:window-maximized="1"
   inkscape:current-layer="Capa_1"
   height="47.32201px"
   width="199.32201px"><sodipodi:guide
     position="215.86331,257.1239"
     orientation="0,-1"
     id="guide35790" /><sodipodi:guide
     position="144.92187,90.962628"
     orientation="0,-1"
     id="guide12022" /><sodipodi:guide
     position="106.83593,-31.724862"
     orientation="0,-1"
     id="guide29" /></sodipodi:namedview>
<g
   id="g50"
   transform="matrix(0.22099022,0,0,0.20885615,77.556662,3.5741653)">
	<path
   d="m 68.075283,78.736586 c 9.889,-6.368 27.417,-16.464 28.106,-42.166 0.536,-20.278 -9.971,-49.506 -49.155,-50.878 -31.482,-1.108 -44.6229995,19.4840002 -48.4519995,37.972 l -0.928,-0.126 c -1.932,0 -3.438,1.28 -5.34,2.889 -2.084,1.784 -4.6830005,3.979 -7.7920005,4.308 -3.573,0.361 -8.111,-1.206 -11.698,-2.449 -4.193,-1.431 -6.624,-2.047 -8.265,-0.759 -1.503,1.163 -2.178,3.262 -2.028,6.226 0.331,6.326 4.971,18.917 16.016,25.778 7.67,4.765 16.2480005,5.482 20.68100046,5.482 0.006,0 0.006,0 0.006,0 2.37000004,0 4.94500004,-0.239 7.38800004,-0.726 2.741,4.218 5.2279995,7.476 6.0369995,9.752 2.054,5.851 -27.848,25.087001 -27.848,55.010004 0,29.916 22.0130005,48.475 56.727,48.475 h 55.004 c 30.592997,0 70.813997,-29.908 75.290997,-92.480003 -28.541,24.072003 -42.294,-9.969001 -103.749997,-6.308001 z m -86.631,-23.866 c -10.166,-6.328 -13.949,-19.023 -13.647,-22.42 0.897,0.24 2.194,0.689 3.228,1.042 4.105,1.415 9.416,3.228 14.068,2.707 4.799,-0.499 8.2530005,-3.437 10.7780005,-5.574 0.607,-0.509 1.393,-1.176 1.872,-1.491 0.87,0.315 0.962,0.693 1.176,3.14 0.19599996,2.26 0.47299996,5.37 2.362,9.006 1.437,2.761 3.581,5.705 5.646,8.542 1.701,2.336 4.2779995,5.871 4.5349995,6.404 -0.445,1.184 -4.9069995,3.282 -12.22899954,3.282 -6.55299996,0.008 -13.04000046,-1.679 -17.78900046,-4.638 z m 37.919,-28.577 c 0,-4.938 4.001,-8.943 8.931,-8.943 4.941,0 8.942,4.005 8.942,8.943 0,4.931 -4.001,8.942 -8.942,8.942 -4.937,0.001 -8.931,-4.011 -8.931,-8.942 z m 92.298997,106.030004 -20.629997,11.169 13.407997,9.293 c 0,0 -49.853997,15.813 -72.197997,-6.885 -11.006,-11.16 -13.06,-28.533 4.124,-38.84 17.184,-10.312003 84.608997,3.943 84.608997,3.943 l -24.176997,13.722 z"
   id="path48" />
</g>
<g
   id="g52">
</g>
<g
   id="g54">
</g>
<g
   id="g56">
</g>
<g
   id="g58">
</g>
<g
   id="g60">
</g>
<g
   id="g62">
</g>
<g
   id="g64">
</g>
<g
   id="g66">
</g>
<g
   id="g68">
</g>
<g
   id="g70">
</g>
<g
   id="g72">
</g>
<g
   id="g74">
</g>
<g
   id="g76">
</g>
<g
   id="g78">
</g>
<g
   id="g80">
</g>
<text
   xml:space="preserve"
   style="font-style:normal;font-variant:normal;font-weight:bold;font-stretch:normal;font-size:48px;line-height:1.25;font-family:'Balsamiq Sans';-inkscape-font-specification:'Balsamiq Sans, Bold';font-variant-ligatures:normal;font-variant-caps:normal;font-variant-numeric:normal;font-variant-east-asian:normal;fill:#000000;fill-opacity:1;stroke:none;stroke-width:1.31796"
   x="0.12502959"
   y="38.736385"
   id="text8447"
   transform="scale(0.97301706,1.0277312)"><tspan
     sodipodi:role="line"
     id="tspan8445"
     x="0.12502959"
     y="38.736385"
     style="font-style:normal;font-variant:normal;font-weight:bold;font-stretch:normal;font-size:48px;font-family:'Balsamiq Sans';-inkscape-font-specification:'Balsamiq Sans, Bold';font-variant-ligatures:normal;font-variant-caps:normal;font-variant-numeric:normal;font-variant-east-asian:normal;stroke-width:1.31796">Pro</tspan></text><text
   xml:space="preserve"
   style="font-style:normal;font-variant:normal;font-weight:bold;font-stretch:normal;font-size:48px;line-height:1.25;font-family:'Balsamiq Sans';-inkscape-font-specification:'Balsamiq Sans, Bold';font-variant-ligatures:normal;font-variant-caps:normal;font-variant-numeric:normal;font-variant-east-asian:normal;fill:#000000;fill-opacity:1;stroke:none;stroke-width:1.22328"
   x="122.05826"
   y="37.694687"
   id="text8447-2"
   transform="scale(0.95394251,1.0482812)"><tspan
     sodipodi:role="line"
     id="tspan8445-7"
     x="122.05826"
     y="37.694687"
     style="font-style:normal;font-variant:normal;font-weight:bold;font-stretch:normal;font-size:48px;font-family:'Balsamiq Sans';-inkscape-font-specification:'Balsamiq Sans, Bold';font-variant-ligatures:normal;font-variant-caps:normal;font-variant-numeric:normal;font-variant-east-asian:normal;stroke-width:1.22328">tive</tspan></text></svg>
